<svg width="33" height="29" viewBox="0 0 33 29" fill="none" xmlns="http://www.w3.org/2000/svg">
<path d="M29.625 17.3855C29.4609 17.9871 28.9141 18.3699 28.3125 18.3699H12.2891L12.6719 20.1199H27.3281C28.1484 20.1199 28.8047 20.9402 28.5859 21.7605L28.3125 23.073C29.3516 23.5652 30.0625 24.6042 30.0625 25.8074C30.0625 27.5027 28.6406 28.8699 27 28.8699C25.3047 28.8699 23.9375 27.5027 23.9375 25.8074C23.9375 24.9871 24.2656 24.2214 24.8125 23.6199H13.3828C13.9297 24.2214 14.3125 24.9871 14.3125 25.8074C14.3125 27.5027 12.8906 28.8699 11.25 28.8699C9.55469 28.8699 8.1875 27.5027 8.1875 25.8074C8.1875 24.7136 8.78906 23.7292 9.71875 23.1824L5.83594 4.36987H2.0625C1.29688 4.36987 0.75 3.823 0.75 3.05737V2.18237C0.75 1.47144 1.29688 0.869873 2.0625 0.869873H7.64062C8.24219 0.869873 8.78906 1.36206 8.95312 1.96362L9.44531 4.36987H30.8828C31.7578 4.36987 32.3594 5.19019 32.1953 6.0105L29.625 17.3855Z" fill="white"/>
</svg>
