<svg width="18" height="18" viewBox="0 0 18 18" fill="none" xmlns="http://www.w3.org/2000/svg">
<path d="M8.34086 12.6671C8.19559 12.8124 7.99932 12.8935 7.79454 12.8935C7.58977 12.8935 7.39273 12.8124 7.24823 12.6671L4.58 9.99887C4.27786 9.69674 4.27786 9.20837 4.58 8.90624C4.88214 8.6041 5.3705 8.6041 5.67264 8.90624L7.79454 11.0281L17.2481 1.57383C16.973 1.15115 16.497 0.869873 15.9545 0.869873H2.04545C1.19159 0.869873 0.5 1.56146 0.5 2.41533V16.3244C0.5 17.1783 1.19159 17.8699 2.04545 17.8699H15.9545C16.8084 17.8699 17.5 17.1783 17.5 16.3244V3.50796L8.34086 12.6671Z" fill="white"/>
</svg>
